<?xml version="1.0" encoding="UTF-8"?> <svg xmlns="http://www.w3.org/2000/svg" xmlns:xlink="http://www.w3.org/1999/xlink" width="150" zoomAndPan="magnify" viewBox="0 0 112.5 112.499997" height="150" preserveAspectRatio="xMidYMid meet" version="1.0"><defs><clipPath id="id1"><path d="M 0 0 L 112.003906 0 L 112.003906 112.003906 L 0 112.003906 Z M 0 0 " clip-rule="nonzero"></path></clipPath><clipPath id="id2"><path d="M 8 45 L 70 45 L 70 106.769531 L 8 106.769531 Z M 8 45 " clip-rule="nonzero"></path></clipPath><clipPath id="id3"><path d="M 44 4.769531 L 108.546875 4.769531 L 108.546875 69 L 44 69 Z M 44 4.769531 " clip-rule="nonzero"></path></clipPath></defs><g clip-path="url(#id1)"><path fill="#ffffff" d="M 0 0 L 112.5 0 L 112.5 120 L 0 120 Z M 0 0 " fill-opacity="1" fill-rule="nonzero"></path><path fill="#ffffff" d="M 0 0 L 112.5 0 L 112.5 112.5 L 0 112.5 Z M 0 0 " fill-opacity="1" fill-rule="nonzero"></path><path fill="#ffffff" d="M 0 0 L 112.5 0 L 112.5 112.5 L 0 112.5 Z M 0 0 " fill-opacity="1" fill-rule="nonzero"></path><path fill="#ffffff" d="M 0 0 L 112.5 0 L 112.5 112.5 L 0 112.5 Z M 0 0 " fill-opacity="1" fill-rule="nonzero"></path></g><g clip-path="url(#id2)"><path fill="#100f0d" d="M 38.582031 48.027344 C 31.136719 48.027344 24.125 50.945312 18.859375 56.246094 C 7.984375 67.179688 7.984375 84.980469 18.859375 95.917969 C 24.128906 101.214844 31.136719 104.132812 38.582031 104.132812 C 46.035156 104.132812 53.042969 101.214844 58.3125 95.917969 C 63.578125 90.617188 66.480469 83.574219 66.480469 76.078125 C 66.480469 68.585938 63.578125 61.542969 58.3125 56.246094 C 53.042969 50.945312 46.035156 48.027344 38.582031 48.027344 Z M 38.582031 106.769531 C 30.433594 106.769531 22.769531 103.578125 17.007812 97.78125 C 5.105469 85.816406 5.105469 66.34375 17.007812 54.378906 C 22.765625 48.582031 30.433594 45.390625 38.582031 45.390625 C 46.738281 45.390625 54.402344 48.582031 60.164062 54.378906 C 65.925781 60.175781 69.105469 67.882812 69.105469 76.078125 C 69.105469 84.277344 65.925781 91.984375 60.164062 97.78125 C 54.402344 103.578125 46.738281 106.769531 38.582031 106.769531 " fill-opacity="1" fill-rule="nonzero"></path></g><path fill="#fbc117" d="M 58.582031 62.789062 C 58.699219 63.773438 58.769531 64.773438 58.769531 65.78125 C 58.765625 72.21875 56.273438 78.269531 51.75 82.820312 C 47.226562 87.371094 41.207031 89.875 34.808594 89.875 C 28.40625 89.875 22.390625 87.371094 17.863281 82.820312 C 16.714844 81.660156 15.691406 80.40625 14.8125 79.070312 C 15.460938 84.375 17.824219 89.277344 21.640625 93.121094 C 26.167969 97.667969 32.183594 100.175781 38.582031 100.175781 C 44.988281 100.175781 51 97.667969 55.527344 93.121094 C 60.054688 88.570312 62.546875 82.515625 62.546875 76.078125 C 62.546875 71.28125 61.160156 66.699219 58.582031 62.789062 " fill-opacity="1" fill-rule="nonzero"></path><g clip-path="url(#id3)"><path fill="#100f0d" d="M 66.539062 68.582031 C 66.207031 68.582031 65.871094 68.453125 65.613281 68.199219 C 65.101562 67.679688 65.101562 66.847656 65.613281 66.332031 L 71.097656 60.816406 C 71.34375 60.570312 71.675781 60.433594 72.023438 60.433594 L 80.300781 60.433594 L 80.300781 51.90625 C 80.300781 51.554688 80.441406 51.214844 80.6875 50.96875 C 80.9375 50.722656 81.269531 50.5625 81.625 50.585938 L 89.988281 50.675781 L 89.988281 42.164062 C 89.988281 41.433594 90.574219 40.84375 91.300781 40.84375 L 99.574219 40.839844 L 99.574219 32.3125 C 99.574219 31.964844 99.710938 31.628906 99.957031 31.382812 L 105.9375 25.367188 L 105.9375 13.167969 C 105.9375 11.628906 105.335938 10.179688 104.257812 9.09375 C 103.175781 8.003906 101.734375 7.40625 100.207031 7.40625 L 88.074219 7.40625 L 47.070312 48.640625 C 46.554688 49.160156 45.726562 49.160156 45.214844 48.640625 C 44.703125 48.128906 44.703125 47.296875 45.214844 46.777344 L 86.605469 5.15625 C 86.851562 4.910156 87.183594 4.769531 87.53125 4.769531 L 100.207031 4.769531 C 102.4375 4.769531 104.535156 5.644531 106.109375 7.226562 C 107.6875 8.816406 108.558594 10.925781 108.558594 13.167969 L 108.558594 25.910156 C 108.558594 26.261719 108.421875 26.597656 108.175781 26.84375 L 102.195312 32.859375 L 102.195312 42.160156 C 102.195312 42.882812 101.609375 43.476562 100.882812 43.476562 L 92.609375 43.480469 L 92.609375 52.007812 C 92.609375 52.359375 92.472656 52.699219 92.222656 52.945312 C 91.972656 53.191406 91.640625 53.3125 91.289062 53.328125 L 82.925781 53.238281 L 82.925781 61.75 C 82.925781 62.480469 82.332031 63.070312 81.613281 63.070312 L 72.566406 63.070312 L 67.46875 68.199219 C 67.214844 68.453125 66.878906 68.582031 66.539062 68.582031 " fill-opacity="1" fill-rule="nonzero"></path></g><path fill="#100f0d" d="M 66.480469 49.082031 C 66.148438 49.082031 65.8125 48.953125 65.554688 48.695312 C 65.042969 48.179688 65.042969 47.347656 65.554688 46.828125 L 90.628906 21.613281 C 91.144531 21.097656 91.972656 21.097656 92.484375 21.613281 C 93 22.125 93 22.960938 92.484375 23.476562 L 67.410156 48.695312 C 67.15625 48.953125 66.816406 49.082031 66.480469 49.082031 " fill-opacity="1" fill-rule="nonzero"></path></svg> 