<?xml version="1.0" encoding="UTF-8"?> <svg xmlns="http://www.w3.org/2000/svg" xmlns:xlink="http://www.w3.org/1999/xlink" width="150" zoomAndPan="magnify" viewBox="0 0 112.5 112.499997" height="150" preserveAspectRatio="xMidYMid meet" version="1.0"><defs><clipPath id="id1"><path d="M 7.09375 7 L 106 7 L 106 105.132812 L 7.09375 105.132812 Z M 7.09375 7 " clip-rule="nonzero"></path></clipPath></defs><path fill="#ffd15c" d="M 86.617188 37.886719 C 90.027344 34.480469 90.027344 28.960938 86.617188 25.554688 C 83.210938 22.152344 77.683594 22.152344 74.273438 25.554688 C 70.867188 28.960938 70.867188 34.480469 74.273438 37.886719 C 77.683594 41.289062 83.210938 41.289062 86.617188 37.886719 Z M 94.726562 17.460938 C 106.816406 29.539062 106.816406 49.121094 94.726562 61.199219 C 85.472656 70.441406 71.828125 72.613281 60.507812 67.714844 L 24.398438 103.785156 L 8.628906 103.785156 L 8.472656 87.882812 L 13.132812 82.90625 L 20.585938 82.910156 L 20.585938 75.429688 L 28.066406 75.429688 L 28.066406 67.984375 L 35.546875 67.984375 L 35.546875 60.539062 L 42.953125 60.539062 L 47.039062 56.457031 C 39.019531 44.441406 40.320312 28.0625 50.933594 17.460938 C 63.027344 5.382812 82.632812 5.382812 94.726562 17.460938 " fill-opacity="1" fill-rule="nonzero"></path><g clip-path="url(#id1)"><path fill="#000000" d="M 9.964844 102.4375 L 23.839844 102.4375 L 59.554688 66.761719 C 59.945312 66.371094 60.539062 66.261719 61.046875 66.480469 C 72.273438 71.339844 85.117188 68.890625 93.773438 60.25 C 99.367188 54.660156 102.445312 47.230469 102.445312 39.332031 C 102.445312 31.429688 99.367188 24 93.773438 18.410156 C 88.175781 12.824219 80.738281 9.746094 72.828125 9.746094 C 64.917969 9.746094 57.480469 12.824219 51.886719 18.410156 C 41.9375 28.347656 40.367188 44.035156 48.160156 55.710938 C 48.515625 56.246094 48.445312 56.957031 47.992188 57.410156 L 43.90625 61.488281 C 43.65625 61.742188 43.3125 61.882812 42.953125 61.882812 L 36.894531 61.882812 L 36.894531 67.984375 C 36.894531 68.726562 36.289062 69.328125 35.546875 69.328125 L 29.414062 69.328125 L 29.414062 75.429688 C 29.414062 76.171875 28.8125 76.777344 28.066406 76.777344 L 21.933594 76.777344 L 21.933594 82.910156 C 21.933594 83.265625 21.792969 83.609375 21.539062 83.859375 C 21.285156 84.113281 20.945312 84.253906 20.585938 84.253906 L 13.714844 84.253906 L 9.824219 88.40625 Z M 24.398438 105.132812 L 8.628906 105.132812 C 7.890625 105.132812 7.289062 104.535156 7.28125 103.800781 L 7.125 87.894531 C 7.121094 87.550781 7.25 87.214844 7.488281 86.960938 L 12.148438 81.988281 C 12.402344 81.714844 12.757812 81.5625 13.128906 81.5625 C 13.128906 81.5625 13.128906 81.5625 13.132812 81.5625 L 19.238281 81.5625 L 19.238281 75.429688 C 19.238281 74.6875 19.84375 74.085938 20.585938 74.085938 L 26.71875 74.082031 L 26.71875 67.984375 C 26.71875 67.238281 27.324219 66.636719 28.066406 66.636719 L 34.199219 66.636719 L 34.199219 60.539062 C 34.199219 59.792969 34.800781 59.191406 35.546875 59.191406 L 42.394531 59.191406 L 45.316406 56.273438 C 41.652344 50.339844 40 43.292969 40.65625 36.304688 C 41 32.640625 41.957031 29.097656 43.496094 25.769531 C 45.089844 22.328125 47.269531 19.214844 49.980469 16.507812 C 53.0625 13.429688 56.660156 11.042969 60.667969 9.417969 C 64.542969 7.847656 68.632812 7.054688 72.828125 7.054688 C 77.023438 7.054688 81.117188 7.847656 84.988281 9.417969 C 88.996094 11.042969 92.59375 13.429688 95.675781 16.507812 C 98.761719 19.589844 101.148438 23.179688 102.777344 27.183594 C 104.34375 31.054688 105.140625 35.136719 105.140625 39.332031 C 105.140625 43.519531 104.34375 47.609375 102.777344 51.476562 C 101.148438 55.480469 98.761719 59.070312 95.675781 62.152344 C 91.003906 66.820312 85.109375 69.90625 78.632812 71.082031 C 72.609375 72.175781 66.472656 71.558594 60.824219 69.304688 L 25.351562 104.738281 C 25.097656 104.988281 24.753906 105.132812 24.398438 105.132812 " fill-opacity="1" fill-rule="nonzero"></path></g><path fill="#000000" d="M 86.617188 37.886719 Z M 80.445312 24.351562 C 78.554688 24.351562 76.667969 25.070312 75.226562 26.507812 C 72.351562 29.382812 72.351562 34.058594 75.226562 36.933594 C 78.105469 39.808594 82.789062 39.808594 85.664062 36.933594 C 88.542969 34.058594 88.542969 29.382812 85.664062 26.507812 C 84.226562 25.070312 82.335938 24.351562 80.445312 24.351562 Z M 80.445312 41.78125 C 77.867188 41.78125 75.285156 40.800781 73.320312 38.835938 C 69.394531 34.914062 69.394531 28.527344 73.320312 24.605469 C 77.25 20.679688 83.640625 20.679688 87.570312 24.605469 C 91.5 28.527344 91.5 34.914062 87.570312 38.835938 C 85.605469 40.800781 83.027344 41.78125 80.445312 41.78125 " fill-opacity="1" fill-rule="nonzero"></path></svg> 