<?xml version="1.0" encoding="UTF-8"?> <svg xmlns="http://www.w3.org/2000/svg" xmlns:xlink="http://www.w3.org/1999/xlink" width="150" zoomAndPan="magnify" viewBox="0 0 112.5 112.499997" height="150" preserveAspectRatio="xMidYMid meet" version="1.0"><defs><clipPath id="id1"><path d="M 7.121094 51 L 105.371094 51 L 105.371094 84 L 7.121094 84 Z M 7.121094 51 " clip-rule="nonzero"></path></clipPath><clipPath id="id2"><path d="M 7.121094 80 L 105.371094 80 L 105.371094 107.207031 L 7.121094 107.207031 Z M 7.121094 80 " clip-rule="nonzero"></path></clipPath><clipPath id="id3"><path d="M 11 5.207031 L 101 5.207031 L 101 37 L 11 37 Z M 11 5.207031 " clip-rule="nonzero"></path></clipPath><clipPath id="id4"><path d="M 7.121094 32 L 105.371094 32 L 105.371094 84 L 7.121094 84 Z M 7.121094 32 " clip-rule="nonzero"></path></clipPath></defs><path fill="#ffffff" d="M 101.199219 53.253906 L 11.34375 53.347656 L 8.753906 81.683594 L 103.796875 81.683594 Z M 101.199219 53.253906 " fill-opacity="1" fill-rule="evenodd"></path><g clip-path="url(#id1)"><path fill="#000000" d="M 102.765625 53.109375 C 102.691406 52.300781 102.011719 51.679688 101.195312 51.679688 L 11.339844 51.777344 C 10.527344 51.777344 9.851562 52.398438 9.777344 53.207031 L 7.1875 81.542969 C 7.148438 81.980469 7.292969 82.417969 7.59375 82.746094 C 7.890625 83.070312 8.3125 83.257812 8.753906 83.257812 L 103.792969 83.257812 C 104.238281 83.257812 104.660156 83.070312 104.957031 82.746094 C 105.253906 82.417969 105.402344 81.980469 105.363281 81.542969 Z M 99.761719 54.828125 L 102.070312 80.113281 C 102.070312 80.113281 10.480469 80.113281 10.480469 80.113281 C 10.480469 80.113281 12.78125 54.921875 12.78125 54.921875 Z M 99.761719 54.828125 " fill-opacity="1" fill-rule="evenodd"></path></g><path fill="#f4c734" d="M 22.605469 105.574219 L 22.605469 99.914062 L 89.949219 99.914062 L 89.949219 105.574219 L 103.796875 105.574219 L 103.796875 81.675781 L 8.757812 81.675781 L 8.757812 105.574219 Z M 22.605469 105.574219 " fill-opacity="1" fill-rule="evenodd"></path><g clip-path="url(#id2)"><path fill="#000000" d="M 22.605469 107.148438 C 23.472656 107.148438 24.179688 106.445312 24.179688 105.574219 L 24.179688 101.488281 C 24.179688 101.488281 88.378906 101.488281 88.378906 101.488281 C 88.378906 101.488281 88.378906 105.574219 88.378906 105.574219 C 88.378906 106.445312 89.082031 107.148438 89.949219 107.148438 L 103.796875 107.148438 C 104.667969 107.148438 105.371094 106.445312 105.371094 105.574219 L 105.371094 81.675781 C 105.371094 80.808594 104.667969 80.105469 103.796875 80.105469 L 8.757812 80.105469 C 7.886719 80.105469 7.183594 80.808594 7.183594 81.675781 L 7.183594 105.574219 C 7.183594 106.445312 7.886719 107.148438 8.757812 107.148438 Z M 21.03125 104.003906 L 10.332031 104.003906 C 10.332031 104.003906 10.332031 83.25 10.332031 83.25 C 10.332031 83.25 102.222656 83.25 102.222656 83.25 C 102.222656 83.25 102.222656 104.003906 102.222656 104.003906 C 102.222656 104.003906 91.523438 104.003906 91.523438 104.003906 C 91.523438 104.003906 91.523438 99.914062 91.523438 99.914062 C 91.523438 99.046875 90.820312 98.34375 89.949219 98.34375 L 22.605469 98.34375 C 21.734375 98.34375 21.03125 99.046875 21.03125 99.914062 Z M 21.03125 104.003906 " fill-opacity="1" fill-rule="evenodd"></path></g><path fill="#ffffff" d="M 51.558594 29.753906 C 51.558594 27.691406 49.882812 26.019531 47.816406 26.019531 L 24.453125 26.019531 C 22.390625 26.019531 20.714844 27.691406 20.714844 29.753906 L 20.714844 39.265625 C 20.714844 41.328125 22.390625 43 24.453125 43 L 47.816406 43 C 49.882812 43 51.558594 41.328125 51.558594 39.265625 Z M 51.558594 29.753906 " fill-opacity="1" fill-rule="evenodd"></path><path fill="#000000" d="M 53.128906 29.753906 C 53.128906 26.824219 50.75 24.449219 47.816406 24.449219 L 24.453125 24.449219 C 21.519531 24.449219 19.144531 26.824219 19.144531 29.753906 C 19.144531 32.578125 19.144531 36.441406 19.144531 39.265625 C 19.144531 42.195312 21.519531 44.574219 24.453125 44.574219 L 47.816406 44.574219 C 50.75 44.574219 53.128906 42.195312 53.128906 39.265625 Z M 49.984375 29.753906 L 49.984375 39.265625 C 49.984375 40.460938 49.015625 41.429688 47.816406 41.429688 L 24.453125 41.429688 C 23.257812 41.429688 22.289062 40.460938 22.289062 39.265625 C 22.289062 39.265625 22.289062 29.753906 22.289062 29.753906 C 22.289062 28.5625 23.257812 27.59375 24.453125 27.59375 L 47.816406 27.59375 C 49.015625 27.59375 49.984375 28.5625 49.984375 29.753906 Z M 49.984375 29.753906 " fill-opacity="1" fill-rule="evenodd"></path><path fill="#ffffff" d="M 91.835938 29.75 C 91.835938 27.6875 90.160156 26.015625 88.09375 26.015625 L 64.730469 26.015625 C 62.667969 26.015625 60.992188 27.6875 60.992188 29.75 L 60.992188 39.257812 C 60.992188 41.324219 62.667969 42.996094 64.730469 42.996094 L 88.09375 42.996094 C 90.160156 42.996094 91.835938 41.324219 91.835938 39.257812 Z M 91.835938 29.75 " fill-opacity="1" fill-rule="evenodd"></path><path fill="#000000" d="M 93.410156 29.75 C 93.410156 26.820312 91.03125 24.441406 88.097656 24.441406 L 64.734375 24.441406 C 61.800781 24.441406 59.421875 26.820312 59.421875 29.75 L 59.421875 39.257812 C 59.421875 42.191406 61.800781 44.566406 64.734375 44.566406 L 88.097656 44.566406 C 91.03125 44.566406 93.410156 42.191406 93.410156 39.257812 Z M 90.261719 29.75 L 90.261719 39.257812 C 90.261719 40.453125 89.292969 41.421875 88.097656 41.421875 L 64.734375 41.421875 C 63.539062 41.421875 62.570312 40.453125 62.570312 39.257812 C 62.570312 39.257812 62.570312 29.75 62.570312 29.75 C 62.570312 28.554688 63.539062 27.585938 64.734375 27.585938 L 88.097656 27.585938 C 89.292969 27.585938 90.261719 28.554688 90.261719 29.75 Z M 90.261719 29.75 " fill-opacity="1" fill-rule="evenodd"></path><path fill="#f4c734" d="M 20.714844 34.511719 L 20.714844 29.753906 C 20.714844 27.691406 22.390625 26.019531 24.453125 26.019531 L 47.816406 26.019531 C 49.882812 26.019531 51.558594 27.691406 51.558594 29.753906 L 51.558594 34.511719 L 60.996094 34.511719 L 60.996094 29.753906 C 60.996094 27.691406 62.671875 26.019531 64.738281 26.019531 L 88.101562 26.019531 C 90.164062 26.019531 91.839844 27.691406 91.839844 29.753906 L 91.839844 34.511719 L 99.390625 34.511719 L 99.390625 15.207031 C 99.390625 12.988281 98.507812 10.859375 96.9375 9.289062 C 95.367188 7.71875 93.238281 6.839844 91.015625 6.839844 C 74.527344 6.839844 38.027344 6.839844 21.539062 6.839844 C 19.316406 6.839844 17.1875 7.71875 15.617188 9.289062 C 14.046875 10.859375 13.164062 12.988281 13.164062 15.207031 C 13.164062 23.351562 13.164062 34.511719 13.164062 34.511719 Z M 20.714844 34.511719 " fill-opacity="1" fill-rule="evenodd"></path><g clip-path="url(#id3)"><path fill="#000000" d="M 20.714844 36.082031 C 21.585938 36.082031 22.289062 35.378906 22.289062 34.511719 L 22.289062 29.753906 C 22.289062 28.5625 23.257812 27.59375 24.453125 27.59375 L 47.816406 27.59375 C 49.015625 27.59375 49.984375 28.5625 49.984375 29.753906 C 49.984375 29.753906 49.984375 34.511719 49.984375 34.511719 C 49.984375 35.378906 50.6875 36.082031 51.558594 36.082031 L 60.996094 36.082031 C 61.867188 36.082031 62.570312 35.378906 62.570312 34.511719 L 62.570312 29.753906 C 62.570312 28.5625 63.539062 27.59375 64.738281 27.59375 L 88.101562 27.59375 C 89.296875 27.59375 90.265625 28.5625 90.265625 29.753906 C 90.265625 29.753906 90.265625 34.511719 90.265625 34.511719 C 90.265625 35.378906 90.96875 36.082031 91.839844 36.082031 L 99.390625 36.082031 C 100.261719 36.082031 100.964844 35.378906 100.964844 34.511719 L 100.964844 15.207031 C 100.964844 12.570312 99.917969 10.042969 98.050781 8.179688 C 96.183594 6.3125 93.65625 5.265625 91.015625 5.265625 C 74.527344 5.265625 38.027344 5.265625 21.539062 5.265625 C 18.898438 5.265625 16.371094 6.3125 14.503906 8.179688 C 12.636719 10.042969 11.589844 12.570312 11.589844 15.207031 C 11.589844 23.351562 11.589844 34.511719 11.589844 34.511719 C 11.589844 35.378906 12.292969 36.082031 13.164062 36.082031 Z M 19.144531 32.9375 L 14.738281 32.9375 C 14.738281 32.9375 14.738281 15.207031 14.738281 15.207031 C 14.738281 13.402344 15.453125 11.675781 16.730469 10.402344 C 18.003906 9.125 19.734375 8.410156 21.539062 8.410156 C 38.027344 8.410156 74.527344 8.410156 91.015625 8.410156 C 92.820312 8.410156 94.550781 9.125 95.824219 10.402344 C 97.101562 11.675781 97.816406 13.402344 97.816406 15.207031 L 97.816406 32.9375 C 97.816406 32.9375 93.414062 32.9375 93.414062 32.9375 C 93.414062 32.9375 93.414062 29.753906 93.414062 29.753906 C 93.414062 26.824219 91.035156 24.449219 88.101562 24.449219 L 64.738281 24.449219 C 61.804688 24.449219 59.425781 26.824219 59.425781 29.753906 L 59.425781 32.9375 C 59.425781 32.9375 53.128906 32.9375 53.128906 32.9375 C 53.128906 32.9375 53.128906 29.753906 53.128906 29.753906 C 53.128906 26.824219 50.753906 24.449219 47.820312 24.449219 L 24.453125 24.449219 C 21.519531 24.449219 19.144531 26.824219 19.144531 29.753906 Z M 19.144531 32.9375 " fill-opacity="1" fill-rule="evenodd"></path></g><g clip-path="url(#id4)"><path fill="#000000" d="M 51.558594 32.9375 C 50.6875 32.9375 49.984375 33.640625 49.984375 34.511719 L 49.984375 39.265625 C 49.984375 40.460938 49.015625 41.429688 47.816406 41.429688 L 24.453125 41.429688 C 23.257812 41.429688 22.289062 40.460938 22.289062 39.265625 C 22.289062 39.265625 22.289062 34.511719 22.289062 34.511719 C 22.289062 33.640625 21.585938 32.9375 20.714844 32.9375 L 13.164062 32.9375 C 12.351562 32.9375 11.671875 33.554688 11.597656 34.363281 L 7.191406 81.53125 C 7.148438 81.972656 7.296875 82.410156 7.59375 82.738281 C 7.894531 83.0625 8.316406 83.25 8.757812 83.25 L 103.796875 83.25 C 104.238281 83.25 104.664062 83.0625 104.960938 82.738281 C 105.257812 82.410156 105.40625 81.972656 105.363281 81.53125 L 100.957031 34.363281 C 100.882812 33.554688 100.203125 32.9375 99.390625 32.9375 L 91.839844 32.9375 C 90.96875 32.9375 90.265625 33.640625 90.265625 34.511719 L 90.265625 39.265625 C 90.265625 40.460938 89.296875 41.429688 88.101562 41.429688 L 64.738281 41.429688 C 63.539062 41.429688 62.570312 40.460938 62.570312 39.265625 C 62.570312 39.265625 62.570312 34.511719 62.570312 34.511719 C 62.570312 33.640625 61.867188 32.9375 61 32.9375 Z M 53.128906 36.082031 L 59.425781 36.082031 C 59.425781 36.082031 59.425781 39.265625 59.425781 39.265625 C 59.425781 42.195312 61.804688 44.574219 64.738281 44.574219 L 88.101562 44.574219 C 91.035156 44.574219 93.414062 42.195312 93.414062 39.265625 C 93.414062 39.265625 93.414062 36.082031 93.414062 36.082031 C 93.414062 36.082031 97.957031 36.082031 97.957031 36.082031 C 97.957031 36.082031 102.070312 80.105469 102.070312 80.105469 C 102.070312 80.105469 10.484375 80.105469 10.484375 80.105469 C 10.484375 80.105469 14.597656 36.082031 14.597656 36.082031 C 14.597656 36.082031 19.144531 36.082031 19.144531 36.082031 C 19.144531 36.082031 19.144531 39.265625 19.144531 39.265625 C 19.144531 42.195312 21.519531 44.574219 24.453125 44.574219 L 47.816406 44.574219 C 50.753906 44.574219 53.128906 42.195312 53.128906 39.265625 Z M 53.128906 36.082031 " fill-opacity="1" fill-rule="evenodd"></path></g></svg> 