<?xml version="1.0" encoding="UTF-8"?> <svg xmlns="http://www.w3.org/2000/svg" xmlns:xlink="http://www.w3.org/1999/xlink" width="150" zoomAndPan="magnify" viewBox="0 0 112.5 112.499997" height="150" preserveAspectRatio="xMidYMid meet" version="1.0"><defs><clipPath id="id1"><path d="M 35.140625 52.761719 L 83.410156 52.761719 L 83.410156 100.386719 L 35.140625 100.386719 Z M 35.140625 52.761719 " clip-rule="nonzero"></path></clipPath><clipPath id="id2"><path d="M 68.097656 10 L 111.75 10 L 111.75 54 L 68.097656 54 Z M 68.097656 10 " clip-rule="nonzero"></path></clipPath><clipPath id="id3"><path d="M 0 9.667969 L 48 9.667969 L 48 54 L 0 54 Z M 0 9.667969 " clip-rule="nonzero"></path></clipPath></defs><g clip-path="url(#id1)"><path fill="#020301" d="M 66.4375 98.265625 C 66.210938 98.050781 62.730469 95.253906 62.363281 94.976562 C 61.191406 94.085938 59.960938 93.1875 58.609375 92.550781 C 57.925781 92.226562 55.917969 90.949219 54.59375 91.742188 C 54.140625 92.011719 53.457031 92.460938 53.382812 92.976562 C 53.285156 93.640625 53.800781 94.347656 54.003906 94.9375 C 54.351562 95.96875 54.246094 97.109375 53.765625 98.078125 C 52.773438 100.070312 50.0625 101.007812 48.109375 99.9375 C 45.730469 98.632812 45.222656 95.324219 47.058594 93.324219 C 47.359375 93 47.714844 92.722656 48.109375 92.511719 C 48.941406 92.066406 50.265625 91.832031 50.585938 91.335938 C 50.890625 90.863281 50.898438 90.25 50.78125 89.703125 C 50.488281 88.308594 49.546875 87.28125 48.367188 86.546875 C 47.8125 86.199219 47.253906 85.859375 46.691406 85.519531 C 44.78125 84.375 42.859375 83.242188 40.925781 82.132812 C 40.792969 82.054688 38.933594 81.066406 38.539062 80.84375 C 39.058594 79.554688 43.914062 71.925781 44.6875 70.800781 C 45.316406 69.972656 44.160156 69 43.4375 68.714844 C 42.546875 68.363281 41.804688 68.835938 40.980469 69.164062 C 39.871094 69.597656 38.820312 69.460938 37.554688 68.738281 C 35.507812 67.574219 34.648438 64.695312 35.765625 62.640625 C 36.878906 60.496094 39.53125 59.652344 41.675781 60.765625 C 42.835938 61.363281 43.664062 62.441406 43.945312 63.71875 C 44.34375 65.433594 46.070312 66.417969 47.773438 65.949219 C 48.882812 65.640625 54.007812 55.628906 55.21875 53.292969 C 57.683594 54.644531 66.703125 62.894531 68.125 60.230469 C 68.433594 59.660156 68.335938 59.121094 67.976562 58.285156 C 66.6875 54.804688 70.136719 51.628906 73.441406 53.316406 C 75.3125 54.265625 76.074219 56.769531 75.042969 58.601562 C 74.496094 59.625 73.527344 60.347656 72.382812 60.585938 C 71.777344 60.710938 71.027344 60.957031 70.632812 61.46875 C 70.207031 62.023438 70.433594 62.773438 70.828125 63.234375 C 71.777344 64.34375 73.34375 64.953125 74.636719 65.582031 C 76.097656 66.296875 83.242188 69.59375 83.1875 69.671875 C 81.132812 72.613281 76.175781 79.695312 75.441406 80.058594 C 74.847656 80.351562 74.054688 80.6875 73.355469 80.558594 C 72.074219 80.324219 71.972656 78.585938 71.4375 77.679688 C 71.007812 76.945312 70.140625 76.339844 69.363281 76.035156 C 67.273438 75.210938 65.445312 76.503906 64.472656 78.335938 C 63.722656 79.761719 63.121094 81.523438 64.171875 82.960938 C 64.914062 83.980469 66.121094 84.460938 67.34375 84.589844 C 68.234375 84.6875 69.179688 84.328125 70.089844 84.484375 C 71.402344 84.710938 72.105469 86.390625 71.449219 87.472656 C 70.488281 89.054688 67.394531 96.398438 66.4375 98.265625 " fill-opacity="1" fill-rule="nonzero"></path></g><g clip-path="url(#id2)"><path fill="#f4c734" d="M 74.714844 20.464844 C 73.785156 20.09375 72.960938 20.710938 72.027344 20.5625 C 71.261719 20.4375 70.753906 20.332031 70.152344 19.835938 C 69.25 19.097656 68.6875 18.046875 68.574219 16.886719 C 68.460938 15.726562 68.808594 14.589844 69.550781 13.6875 C 70.289062 12.785156 71.335938 12.222656 72.5 12.109375 C 73.660156 11.996094 74.800781 12.339844 75.703125 13.082031 C 76.515625 13.75 77.160156 14.789062 77.242188 15.855469 C 77.324219 16.894531 77.464844 17.742188 78.527344 18.125 C 78.859375 18.242188 79.453125 18.382812 79.757812 18.132812 C 80.113281 17.84375 81.96875 15.546875 82.621094 14.832031 C 84.257812 13.042969 85.730469 11.527344 87.117188 10.207031 C 87.332031 10.417969 96.664062 17.347656 97.910156 18.292969 C 97.984375 18.355469 98.0625 18.398438 98.082031 18.460938 C 98.417969 19.539062 98.324219 20.117188 97.90625 20.652344 C 97.53125 21.132812 96.894531 21.375 96.003906 21.378906 C 94.710938 21.371094 93.496094 21.933594 92.660156 22.917969 C 91.117188 24.746094 91.355469 27.488281 93.179688 29.03125 C 95.003906 30.570312 97.75 30.339844 99.292969 28.515625 C 100.085938 27.574219 100.453125 26.171875 100.257812 24.886719 C 100.25 24.875 100.246094 24.863281 100.242188 24.847656 C 100.234375 24.792969 100.226562 24.742188 100.222656 24.691406 C 100.222656 24.683594 100.21875 24.671875 100.21875 24.660156 C 100.148438 23.992188 100.265625 23.5 100.582031 23.15625 C 100.957031 22.742188 101.410156 22.601562 102.382812 22.625 C 102.542969 22.628906 102.695312 22.695312 102.804688 22.816406 C 102.804688 22.816406 102.804688 22.820312 102.804688 22.820312 C 103.753906 23.878906 111.453125 32.441406 111.75 32.691406 C 110.628906 34.042969 109.484375 35.382812 108.324219 36.707031 C 107.324219 37.839844 106.3125 38.964844 105.285156 40.074219 C 104.90625 40.480469 104.382812 40.882812 104.070312 41.332031 C 103.632812 41.957031 103.5625 42.59375 104.039062 43.136719 C 104.578125 43.761719 105.460938 44.082031 106.285156 43.949219 C 106.300781 43.949219 106.308594 43.945312 106.320312 43.941406 C 107.621094 43.789062 109.023438 44.21875 109.9375 45.054688 C 111.757812 46.714844 111.84375 49.570312 110.105469 51.34375 C 108.648438 52.828125 106.304688 53.082031 104.574219 51.925781 C 103.277344 51.0625 102.550781 49.613281 102.617188 48.089844 C 102.621094 48.085938 102.617188 48.085938 102.617188 48.082031 C 102.648438 47.199219 102.445312 46.554688 102.015625 46.160156 C 102.003906 46.148438 101.984375 46.132812 101.972656 46.121094 C 101.472656 45.699219 101.003906 45.59375 100.390625 45.707031 C 99.644531 45.839844 94.644531 50.503906 91.5 53.941406 L 68.265625 32.722656 C 71.976562 28.632812 73.65625 26.253906 75.28125 23.953125 C 75.578125 23.53125 75.863281 23.171875 75.925781 22.648438 C 76.039062 21.710938 75.625 20.832031 74.714844 20.464844 " fill-opacity="1" fill-rule="nonzero"></path></g><g clip-path="url(#id3)"><path fill="#f4c734" d="M 34.105469 9.703125 C 34.144531 9.792969 47.765625 41.039062 47.765625 41.039062 C 47.738281 41.035156 42.734375 42.582031 40.429688 43.3125 C 39.027344 43.757812 36.398438 45.1875 35.40625 43.3125 C 35.214844 42.945312 35.238281 42.480469 35.472656 41.890625 C 35.476562 41.890625 35.476562 41.886719 35.476562 41.882812 C 36.113281 40.59375 36.152344 38.964844 35.578125 37.726562 C 34.503906 35.417969 31.75 34.410156 29.441406 35.488281 C 28.324219 36.007812 27.476562 36.929688 27.050781 38.089844 C 26.628906 39.246094 26.683594 40.5 27.203125 41.617188 C 27.753906 42.804688 28.78125 43.699219 30.03125 44.082031 C 30.042969 44.089844 30.054688 44.09375 30.070312 44.097656 C 30.070312 44.097656 30.074219 44.097656 30.074219 44.097656 C 30.082031 44.101562 30.089844 44.105469 30.097656 44.105469 C 30.75 44.316406 31.1875 44.664062 31.386719 45.132812 C 31.640625 45.714844 31.554688 46.613281 31.105469 47.082031 C 30.707031 47.5 28.097656 48.761719 27.34375 49.167969 C 25.804688 49.996094 24.261719 50.820312 22.710938 51.632812 C 21.820312 52.097656 21.109375 52.429688 19.957031 53.007812 C 18.441406 50.058594 17.21875 47.539062 15.59375 44.644531 C 15.011719 43.609375 14.066406 41.476562 12.835938 41.007812 C 12.160156 40.75 11.789062 40.566406 11.109375 40.8125 C 9.71875 41.308594 9.707031 42.550781 8.96875 43.609375 C 8.480469 44.3125 7.8125 44.90625 7.027344 45.246094 C 4.714844 46.253906 2.011719 45.191406 1.003906 42.882812 C -0.00390625 40.570312 1.058594 37.871094 3.371094 36.863281 C 4.617188 36.320312 6.027344 36.359375 7.246094 36.964844 C 7.246094 36.964844 7.25 36.96875 7.25 36.96875 C 8.289062 37.476562 9.273438 37.152344 9.871094 36.183594 C 10.140625 35.742188 10.355469 35.214844 10.453125 34.710938 C 10.558594 34.1875 10.308594 33.675781 10.148438 33.191406 C 9.964844 32.640625 9.777344 32.085938 9.59375 31.535156 C 9.234375 30.453125 8.871094 29.34375 8.511719 28.28125 C 7.789062 26.125 7.078125 23.96875 6.320312 21.828125 C 7.339844 21.519531 12.691406 19.835938 14.5 19.300781 C 15.28125 19.070312 16.0625 18.839844 16.839844 18.597656 C 17.128906 18.511719 17.417969 18.425781 17.707031 18.328125 C 18.210938 18.15625 18.542969 18.238281 19.007812 18.507812 C 19.359375 18.707031 19.671875 18.988281 19.859375 19.355469 C 20.097656 19.828125 20.101562 20.375 19.859375 20.992188 C 19.859375 20.996094 19.859375 20.996094 19.855469 21 L 19.847656 21.027344 L 19.839844 21.042969 C 19.34375 22.253906 19.386719 23.621094 19.953125 24.796875 C 20.195312 25.292969 20.519531 25.746094 20.921875 26.128906 C 23.289062 28.394531 27.390625 27.40625 28.476562 24.3125 C 28.882812 23.148438 28.808594 21.898438 28.273438 20.785156 C 27.683594 19.5625 26.402344 18.558594 25.003906 18.234375 C 24.585938 18.105469 24.175781 17.914062 23.960938 17.519531 C 23.75 17.136719 23.675781 16.683594 23.761719 16.257812 C 23.832031 15.902344 24 15.632812 24.214844 15.40625 C 24.550781 15.058594 25.007812 14.824219 25.4375 14.566406 C 26.058594 14.191406 26.683594 13.828125 27.308594 13.464844 C 28.792969 12.605469 30.28125 11.757812 31.78125 10.925781 C 31.910156 10.855469 33.945312 9.769531 34.105469 9.703125 " fill-opacity="1" fill-rule="nonzero"></path></g></svg> 