<?xml version="1.0" encoding="UTF-8"?> <svg xmlns="http://www.w3.org/2000/svg" xmlns:xlink="http://www.w3.org/1999/xlink" width="150" zoomAndPan="magnify" viewBox="0 0 112.5 112.499997" height="150" preserveAspectRatio="xMidYMid meet" version="1.0"><defs><clipPath id="id1"><path d="M 6.746094 10 L 104.246094 10 L 104.246094 107.707031 L 6.746094 107.707031 Z M 6.746094 10 " clip-rule="nonzero"></path></clipPath><clipPath id="id2"><path d="M 6.746094 6.457031 L 104.246094 6.457031 L 104.246094 30 L 6.746094 30 Z M 6.746094 6.457031 " clip-rule="nonzero"></path></clipPath></defs><path fill="#f6c718" d="M 103.222656 106.671875 L 7.769531 106.671875 L 7.769531 11.367188 L 103.222656 11.367188 L 103.222656 106.671875 " fill-opacity="1" fill-rule="nonzero"></path><g clip-path="url(#id1)"><path fill="#000000" d="M 103.222656 106.671875 L 103.222656 105.644531 L 8.792969 105.644531 L 8.792969 12.394531 L 102.199219 12.394531 L 102.199219 106.671875 L 103.222656 106.671875 L 103.222656 105.644531 L 103.222656 106.671875 L 104.246094 106.671875 L 104.246094 11.367188 C 104.246094 11.097656 104.136719 10.832031 103.949219 10.640625 C 103.757812 10.449219 103.492188 10.339844 103.222656 10.339844 L 7.769531 10.339844 C 7.5 10.339844 7.234375 10.449219 7.042969 10.640625 C 6.851562 10.832031 6.742188 11.097656 6.742188 11.367188 L 6.742188 106.671875 C 6.742188 106.945312 6.851562 107.210938 7.042969 107.402344 C 7.234375 107.59375 7.5 107.703125 7.769531 107.703125 L 103.222656 107.703125 C 103.492188 107.703125 103.757812 107.59375 103.949219 107.402344 C 104.136719 107.210938 104.246094 106.945312 104.246094 106.671875 L 103.222656 106.671875 " fill-opacity="1" fill-rule="nonzero"></path></g><path fill="#000000" d="M 96.820312 101.929688 L 96.820312 100.902344 L 15.195312 100.902344 L 15.195312 34.953125 L 95.796875 34.953125 L 95.796875 101.929688 L 96.820312 101.929688 L 96.820312 100.902344 L 96.820312 101.929688 L 97.84375 101.929688 L 97.84375 33.925781 C 97.84375 33.65625 97.734375 33.390625 97.546875 33.199219 C 97.355469 33.007812 97.089844 32.898438 96.820312 32.898438 L 14.171875 32.898438 C 13.902344 32.898438 13.636719 33.007812 13.445312 33.199219 C 13.257812 33.390625 13.148438 33.65625 13.148438 33.925781 L 13.148438 101.929688 C 13.148438 102.199219 13.257812 102.464844 13.445312 102.65625 C 13.636719 102.847656 13.902344 102.957031 14.171875 102.957031 L 96.820312 102.957031 C 97.089844 102.957031 97.355469 102.847656 97.546875 102.65625 C 97.734375 102.464844 97.84375 102.199219 97.84375 101.929688 L 96.820312 101.929688 " fill-opacity="1" fill-rule="nonzero"></path><path fill="#ffffff" d="M 103.222656 28.238281 L 7.769531 28.238281 L 7.769531 7.488281 L 103.222656 7.488281 L 103.222656 28.238281 " fill-opacity="1" fill-rule="nonzero"></path><g clip-path="url(#id2)"><path fill="#000000" d="M 103.222656 28.238281 L 103.222656 27.210938 L 8.792969 27.210938 L 8.792969 8.515625 L 102.199219 8.515625 L 102.199219 28.238281 L 103.222656 28.238281 L 103.222656 27.210938 L 103.222656 28.238281 L 104.246094 28.238281 L 104.246094 7.488281 C 104.246094 7.21875 104.136719 6.953125 103.949219 6.761719 C 103.757812 6.570312 103.492188 6.460938 103.222656 6.460938 L 7.769531 6.460938 C 7.5 6.460938 7.234375 6.570312 7.042969 6.761719 C 6.851562 6.953125 6.742188 7.21875 6.742188 7.488281 L 6.742188 28.238281 C 6.742188 28.507812 6.851562 28.773438 7.042969 28.964844 C 7.234375 29.15625 7.5 29.265625 7.769531 29.265625 L 103.222656 29.265625 C 103.492188 29.265625 103.757812 29.15625 103.949219 28.964844 C 104.136719 28.773438 104.246094 28.507812 104.246094 28.238281 L 103.222656 28.238281 " fill-opacity="1" fill-rule="nonzero"></path></g><path fill="#ffffff" d="M 85.085938 68.414062 C 85.085938 84.058594 72.453125 96.738281 56.863281 96.738281 C 41.28125 96.738281 28.644531 84.058594 28.644531 68.414062 C 28.644531 52.773438 41.28125 40.097656 56.863281 40.097656 C 72.453125 40.097656 85.085938 52.773438 85.085938 68.414062 " fill-opacity="1" fill-rule="nonzero"></path><path fill="#000000" d="M 85.085938 68.414062 L 84.0625 68.414062 C 84.0625 75.957031 81.019531 82.773438 76.097656 87.714844 C 71.171875 92.65625 64.378906 95.707031 56.863281 95.710938 C 49.351562 95.707031 42.558594 92.65625 37.636719 87.714844 C 32.710938 82.773438 29.671875 75.957031 29.667969 68.414062 C 29.671875 60.875 32.710938 54.058594 37.636719 49.117188 C 42.558594 44.175781 49.351562 41.125 56.863281 41.125 C 64.378906 41.125 71.171875 44.175781 76.097656 49.117188 C 81.019531 54.058594 84.0625 60.875 84.0625 68.414062 L 86.113281 68.414062 C 86.113281 60.316406 82.835938 52.972656 77.546875 47.664062 C 72.257812 42.355469 64.9375 39.066406 56.863281 39.066406 C 48.792969 39.066406 41.476562 42.355469 36.1875 47.664062 C 30.894531 52.972656 27.621094 60.316406 27.621094 68.414062 C 27.621094 76.515625 30.894531 83.863281 36.1875 89.167969 C 41.476562 94.480469 48.792969 97.765625 56.863281 97.765625 C 64.9375 97.765625 72.257812 94.480469 77.546875 89.167969 C 82.835938 83.863281 86.113281 76.515625 86.113281 68.414062 L 85.085938 68.414062 " fill-opacity="1" fill-rule="nonzero"></path><path fill="#ffffff" d="M 77.582031 68.414062 C 77.582031 79.898438 68.308594 89.203125 56.863281 89.203125 C 45.425781 89.203125 36.148438 79.898438 36.148438 68.414062 C 36.148438 56.933594 45.425781 47.628906 56.863281 47.628906 C 68.308594 47.628906 77.582031 56.933594 77.582031 68.414062 " fill-opacity="1" fill-rule="nonzero"></path><path fill="#000000" d="M 77.582031 68.414062 L 76.558594 68.414062 C 76.558594 73.875 74.355469 78.808594 70.792969 82.390625 C 67.226562 85.96875 62.308594 88.175781 56.863281 88.175781 C 51.425781 88.175781 46.507812 85.96875 42.941406 82.390625 C 39.375 78.808594 37.171875 73.875 37.171875 68.414062 C 37.171875 62.953125 39.375 58.019531 42.941406 54.441406 C 46.507812 50.863281 51.425781 48.65625 56.863281 48.65625 C 62.308594 48.65625 67.226562 50.863281 70.792969 54.441406 C 74.355469 58.019531 76.558594 62.953125 76.558594 68.414062 L 78.605469 68.414062 C 78.609375 62.394531 76.171875 56.933594 72.238281 52.988281 C 68.308594 49.042969 62.867188 46.597656 56.863281 46.597656 C 50.863281 46.597656 45.425781 49.042969 41.492188 52.988281 C 37.558594 56.933594 35.125 62.394531 35.125 68.414062 C 35.125 74.4375 37.558594 79.898438 41.492188 83.84375 C 45.425781 87.789062 50.863281 90.234375 56.863281 90.234375 C 62.867188 90.234375 68.308594 87.789062 72.238281 83.84375 C 76.171875 79.898438 78.609375 74.4375 78.605469 68.414062 L 77.582031 68.414062 " fill-opacity="1" fill-rule="nonzero"></path><path fill="#f6c718" d="M 64.082031 19.945312 L 51.992188 19.945312 L 51.992188 15.105469 L 64.082031 15.105469 L 64.082031 19.945312 " fill-opacity="1" fill-rule="nonzero"></path><path fill="#000000" d="M 64.082031 19.945312 L 64.082031 18.917969 L 53.019531 18.917969 L 53.019531 16.132812 L 63.058594 16.132812 L 63.058594 19.945312 L 64.082031 19.945312 L 64.082031 18.917969 L 64.082031 19.945312 L 65.105469 19.945312 L 65.105469 15.105469 C 65.105469 14.832031 64.996094 14.570312 64.804688 14.378906 C 64.617188 14.1875 64.351562 14.078125 64.082031 14.078125 L 51.992188 14.078125 C 51.722656 14.078125 51.460938 14.1875 51.269531 14.378906 C 51.078125 14.570312 50.96875 14.832031 50.96875 15.105469 L 50.96875 19.945312 C 50.96875 20.214844 51.078125 20.480469 51.269531 20.671875 C 51.460938 20.863281 51.722656 20.972656 51.992188 20.972656 L 64.082031 20.972656 C 64.351562 20.972656 64.617188 20.863281 64.804688 20.671875 C 64.996094 20.480469 65.105469 20.214844 65.105469 19.945312 L 64.082031 19.945312 " fill-opacity="1" fill-rule="nonzero"></path><path fill="#ffffff" d="M 80.453125 19.945312 L 68.363281 19.945312 L 68.363281 15.105469 L 80.453125 15.105469 L 80.453125 19.945312 " fill-opacity="1" fill-rule="nonzero"></path><path fill="#000000" d="M 80.453125 19.945312 L 80.453125 18.917969 L 69.386719 18.917969 L 69.386719 16.132812 L 79.429688 16.132812 L 79.429688 19.945312 L 80.453125 19.945312 L 80.453125 18.917969 L 80.453125 19.945312 L 81.476562 19.945312 L 81.476562 15.105469 C 81.476562 14.832031 81.367188 14.570312 81.175781 14.378906 C 80.984375 14.1875 80.722656 14.078125 80.453125 14.078125 L 68.363281 14.078125 C 68.09375 14.078125 67.828125 14.1875 67.636719 14.378906 C 67.449219 14.570312 67.339844 14.832031 67.339844 15.105469 L 67.339844 19.945312 C 67.339844 20.214844 67.449219 20.480469 67.636719 20.671875 C 67.828125 20.863281 68.09375 20.972656 68.363281 20.972656 L 80.453125 20.972656 C 80.722656 20.972656 80.984375 20.863281 81.175781 20.671875 C 81.367188 20.480469 81.476562 20.214844 81.476562 19.945312 L 80.453125 19.945312 " fill-opacity="1" fill-rule="nonzero"></path><path fill="#f6c718" d="M 96.820312 19.945312 L 84.734375 19.945312 L 84.734375 15.105469 L 96.820312 15.105469 L 96.820312 19.945312 " fill-opacity="1" fill-rule="nonzero"></path><path fill="#000000" d="M 96.820312 19.945312 L 96.820312 18.917969 L 85.757812 18.917969 L 85.757812 16.132812 L 95.796875 16.132812 L 95.796875 19.945312 L 96.820312 19.945312 L 96.820312 18.917969 L 96.820312 19.945312 L 97.84375 19.945312 L 97.84375 15.105469 C 97.84375 14.832031 97.734375 14.570312 97.546875 14.378906 C 97.355469 14.1875 97.089844 14.078125 96.820312 14.078125 L 84.734375 14.078125 C 84.464844 14.078125 84.199219 14.1875 84.007812 14.378906 C 83.816406 14.570312 83.707031 14.832031 83.707031 15.105469 L 83.707031 19.945312 C 83.707031 20.214844 83.816406 20.480469 84.007812 20.671875 C 84.199219 20.863281 84.464844 20.972656 84.734375 20.972656 L 96.820312 20.972656 C 97.089844 20.972656 97.355469 20.863281 97.546875 20.671875 C 97.734375 20.480469 97.84375 20.214844 97.84375 19.945312 L 96.820312 19.945312 " fill-opacity="1" fill-rule="nonzero"></path><path fill="#ffffff" d="M 30.285156 17.523438 C 30.285156 21.296875 27.238281 24.359375 23.476562 24.359375 C 19.714844 24.359375 16.667969 21.296875 16.667969 17.523438 C 16.667969 13.75 19.714844 10.691406 23.476562 10.691406 C 27.238281 10.691406 30.285156 13.75 30.285156 17.523438 " fill-opacity="1" fill-rule="nonzero"></path><path fill="#000000" d="M 30.285156 17.523438 L 29.261719 17.523438 C 29.261719 19.128906 28.617188 20.574219 27.566406 21.628906 C 26.515625 22.683594 25.078125 23.332031 23.476562 23.332031 C 21.875 23.332031 20.433594 22.683594 19.382812 21.628906 C 18.335938 20.574219 17.691406 19.132812 17.691406 17.523438 C 17.691406 15.917969 18.335938 14.472656 19.382812 13.417969 C 20.433594 12.367188 21.875 11.71875 23.476562 11.71875 C 25.078125 11.71875 26.515625 12.367188 27.566406 13.417969 C 28.617188 14.472656 29.261719 15.917969 29.261719 17.523438 L 31.308594 17.523438 C 31.3125 15.355469 30.433594 13.386719 29.015625 11.964844 C 27.601562 10.546875 25.636719 9.664062 23.476562 9.664062 C 21.316406 9.664062 19.351562 10.546875 17.933594 11.964844 C 16.519531 13.386719 15.640625 15.355469 15.640625 17.523438 C 15.640625 19.691406 16.519531 21.664062 17.933594 23.082031 C 19.351562 24.503906 21.316406 25.386719 23.476562 25.386719 C 25.636719 25.386719 27.601562 24.503906 29.015625 23.082031 C 30.433594 21.664062 31.3125 19.691406 31.308594 17.523438 L 30.285156 17.523438 " fill-opacity="1" fill-rule="nonzero"></path><path fill="#ffffff" d="M 38.410156 13.613281 C 38.410156 15.226562 37.105469 16.535156 35.496094 16.535156 C 33.890625 16.535156 32.585938 15.226562 32.585938 13.613281 C 32.585938 12 33.890625 10.691406 35.496094 10.691406 C 37.105469 10.691406 38.410156 12 38.410156 13.613281 " fill-opacity="1" fill-rule="nonzero"></path><path fill="#000000" d="M 38.410156 13.613281 L 37.386719 13.613281 C 37.386719 14.140625 37.175781 14.605469 36.832031 14.953125 C 36.488281 15.296875 36.023438 15.507812 35.496094 15.507812 C 34.972656 15.507812 34.507812 15.296875 34.164062 14.953125 C 33.820312 14.605469 33.609375 14.140625 33.609375 13.613281 C 33.609375 13.085938 33.820312 12.617188 34.164062 12.273438 C 34.507812 11.929688 34.972656 11.71875 35.496094 11.71875 C 36.023438 11.71875 36.488281 11.929688 36.832031 12.273438 C 37.175781 12.617188 37.386719 13.085938 37.386719 13.613281 L 39.433594 13.613281 C 39.433594 12.523438 38.992188 11.53125 38.28125 10.820312 C 37.570312 10.105469 36.582031 9.664062 35.496094 9.664062 C 34.414062 9.664062 33.421875 10.105469 32.714844 10.820312 C 32.003906 11.53125 31.5625 12.523438 31.5625 13.613281 C 31.5625 14.699219 32.003906 15.695312 32.714844 16.40625 C 33.421875 17.117188 34.414062 17.5625 35.496094 17.5625 C 36.582031 17.5625 37.570312 17.117188 38.28125 16.40625 C 38.992188 15.695312 39.433594 14.699219 39.433594 13.613281 L 38.410156 13.613281 " fill-opacity="1" fill-rule="nonzero"></path><path fill="#ffffff" d="M 35.816406 21.890625 C 35.816406 22.886719 35.015625 23.691406 34.027344 23.691406 C 33.035156 23.691406 32.234375 22.886719 32.234375 21.890625 C 32.234375 20.898438 33.035156 20.09375 34.027344 20.09375 C 35.015625 20.09375 35.816406 20.898438 35.816406 21.890625 " fill-opacity="1" fill-rule="nonzero"></path><path fill="#000000" d="M 35.816406 21.890625 L 34.792969 21.890625 C 34.792969 22.109375 34.710938 22.292969 34.570312 22.4375 C 34.425781 22.578125 34.242188 22.664062 34.027344 22.664062 C 33.8125 22.664062 33.625 22.578125 33.480469 22.4375 C 33.339844 22.292969 33.257812 22.109375 33.257812 21.890625 C 33.257812 21.675781 33.339844 21.492188 33.484375 21.347656 C 33.625 21.207031 33.8125 21.121094 34.027344 21.121094 C 34.238281 21.121094 34.425781 21.203125 34.570312 21.347656 C 34.710938 21.492188 34.792969 21.675781 34.792969 21.890625 L 36.84375 21.890625 C 36.84375 21.113281 36.523438 20.402344 36.015625 19.894531 C 35.511719 19.382812 34.800781 19.0625 34.027344 19.066406 C 33.25 19.0625 32.539062 19.382812 32.035156 19.894531 C 31.527344 20.402344 31.207031 21.113281 31.207031 21.890625 C 31.207031 22.667969 31.527344 23.382812 32.035156 23.890625 C 32.539062 24.402344 33.25 24.71875 34.027344 24.71875 C 34.800781 24.71875 35.511719 24.402344 36.015625 23.890625 C 36.523438 23.382812 36.84375 22.667969 36.84375 21.890625 L 35.816406 21.890625 " fill-opacity="1" fill-rule="nonzero"></path></svg> 