<?xml version="1.0" encoding="UTF-8"?> <svg xmlns="http://www.w3.org/2000/svg" xmlns:xlink="http://www.w3.org/1999/xlink" width="150" zoomAndPan="magnify" viewBox="0 0 112.5 112.499997" height="150" preserveAspectRatio="xMidYMid meet" version="1.0"><defs><clipPath id="id1"><path d="M 2 7 L 110.683594 7 L 110.683594 50 L 2 50 Z M 2 7 " clip-rule="nonzero"></path></clipPath><clipPath id="id2"><path d="M 18 22 L 95 22 L 95 103.234375 L 18 103.234375 Z M 18 22 " clip-rule="nonzero"></path></clipPath></defs><g clip-path="url(#id1)"><path fill="#f4c734" d="M 106.441406 49.285156 C 105.636719 49.285156 104.902344 49.054688 104.242188 48.59375 L 56.308594 15.542969 L 8.371094 48.59375 C 7.953125 48.855469 7.5 49.027344 7.011719 49.113281 C 6.527344 49.199219 6.042969 49.191406 5.558594 49.09375 C 5.074219 48.992188 4.625 48.808594 4.214844 48.535156 C 3.800781 48.265625 3.453125 47.925781 3.171875 47.523438 C 2.890625 47.117188 2.695312 46.675781 2.582031 46.195312 C 2.472656 45.71875 2.453125 45.234375 2.527344 44.746094 C 2.601562 44.261719 2.765625 43.804688 3.015625 43.378906 C 3.265625 42.957031 3.585938 42.59375 3.976562 42.292969 L 54.109375 7.699219 C 54.433594 7.476562 54.78125 7.308594 55.15625 7.191406 C 55.53125 7.074219 55.914062 7.015625 56.308594 7.015625 C 56.699219 7.015625 57.085938 7.074219 57.460938 7.191406 C 57.835938 7.308594 58.183594 7.476562 58.507812 7.699219 L 108.640625 42.292969 C 109.058594 42.582031 109.40625 42.941406 109.679688 43.371094 C 109.957031 43.796875 110.136719 44.261719 110.230469 44.765625 C 110.320312 45.265625 110.308594 45.761719 110.203125 46.261719 C 110.09375 46.757812 109.894531 47.214844 109.601562 47.632812 C 109.242188 48.148438 108.785156 48.554688 108.226562 48.847656 C 107.667969 49.136719 107.070312 49.285156 106.441406 49.285156 Z M 106.441406 49.285156 " fill-opacity="1" fill-rule="nonzero"></path></g><g clip-path="url(#id2)"><path fill="#000000" d="M 90.320312 103.09375 L 22.292969 103.09375 C 21.78125 103.09375 21.292969 102.996094 20.820312 102.800781 C 20.347656 102.605469 19.929688 102.328125 19.566406 101.96875 C 19.207031 101.609375 18.925781 101.191406 18.730469 100.722656 C 18.535156 100.25 18.4375 99.761719 18.4375 99.25 L 18.4375 49.976562 C 18.433594 49.351562 18.574219 48.761719 18.863281 48.207031 C 19.148438 47.648438 19.546875 47.1875 20.058594 46.828125 L 54.109375 23.074219 C 54.433594 22.851562 54.78125 22.679688 55.15625 22.5625 C 55.53125 22.449219 55.914062 22.390625 56.308594 22.390625 C 56.699219 22.390625 57.085938 22.449219 57.460938 22.5625 C 57.835938 22.679688 58.183594 22.851562 58.507812 23.074219 L 92.558594 46.828125 C 93.070312 47.1875 93.46875 47.648438 93.753906 48.207031 C 94.039062 48.761719 94.179688 49.351562 94.175781 49.976562 L 94.175781 99.25 C 94.175781 99.761719 94.078125 100.25 93.882812 100.722656 C 93.6875 101.191406 93.410156 101.609375 93.046875 101.96875 C 92.6875 102.328125 92.269531 102.605469 91.796875 102.800781 C 91.324219 102.996094 90.832031 103.09375 90.320312 103.09375 Z M 26.152344 95.40625 L 86.464844 95.40625 L 86.464844 51.976562 L 56.308594 30.914062 L 26.152344 51.976562 Z M 26.152344 95.40625 " fill-opacity="1" fill-rule="nonzero"></path></g></svg> 